<svg width="96" height="96" viewBox="0 0 96 96" fill="none" xmlns="http://www.w3.org/2000/svg">
  <rect width="96" height="96" rx="28" fill="url(#bg)"/>
  <path d="M19 58C19 45.2975 29.2975 35 42 35H54C66.7025 35 77 45.2975 77 58V62C77 65.3137 74.3137 68 71 68H25C21.6863 68 19 65.3137 19 62V58Z" fill="white" fill-opacity="0.16"/>
  <path d="M28 54C28 46.8203 33.8203 41 41 41H55C62.1797 41 68 46.8203 68 54V57H28V54Z" fill="white"/>
  <path d="M41 49H55" stroke="#1E3A8A" stroke-width="4" stroke-linecap="round"/>
  <path d="M33 57L38 45H58L63 57" stroke="#1E3A8A" stroke-width="4" stroke-linecap="round" stroke-linejoin="round"/>
  <circle cx="38" cy="64" r="7" fill="#0F172A"/>
  <circle cx="58" cy="64" r="7" fill="#0F172A"/>
  <circle cx="38" cy="64" r="2.5" fill="#F8FAFC"/>
  <circle cx="58" cy="64" r="2.5" fill="#F8FAFC"/>
  <path d="M58 25L65 18" stroke="#FACC15" stroke-width="5" stroke-linecap="round"/>
  <path d="M66 26H75" stroke="#FACC15" stroke-width="5" stroke-linecap="round"/>
  <path d="M63 31L70 38" stroke="#FACC15" stroke-width="5" stroke-linecap="round"/>
  <defs>
    <linearGradient id="bg" x1="10" y1="8" x2="84" y2="88" gradientUnits="userSpaceOnUse">
      <stop stop-color="#2563EB"/>
      <stop offset="1" stop-color="#7C3AED"/>
    </linearGradient>
  </defs>
</svg>
